# AST/ASF file generated using VICON BodyLanguage
# -----------------------------------------------
:version 1.10
:name VICON
:units
  mass 1.0
  length 0.45
  angle deg
:documentation
   .ast/.asf automatically generated from VICON data using
   VICON BodyBuilder and BodyLanguage model FoxedUp or BRILLIANT.MOD
:root
   order TX TY TZ RX RY RZ
   axis XYZ
   position 0 0 0  
   orientation 0 0 0 
:bonedata
  begin
     id 1 
     name lhipjoint
     direction 0.558404 -0.748506 0.357664 
     length 2.4234 
     axis 0 0 0  XYZ
  end
  begin
     id 2 
     name lfemur
     direction 0.34202 -0.939693 0  
     length 7.14567  
     axis 0 0 20  XYZ
    dof rx ry rz
    limits (-160.0 20.0)
           (-70.0 70.0)
           (-60.0 70.0)
  end
  begin
     id 3 
     name ltibia
     direction 0.34202 -0.939693 0   
     length 8.13956   
     axis 0 0 20   XYZ
    dof rx
    limits (-10.0 170.0)
  end
  begin
     id 4 
     name lfoot
     direction 0.0791314 -0.217412 0.972867   
     length 2.00134   
     axis -90 7.62852e-016 20   XYZ
    dof rx rz
    limits (-45.0 90.0)
           (-70.0 20.0)
  end
  begin
     id 5 
     name ltoes
     direction 1.53547e-011 -4.21922e-011 1   
     length 1.00735   
     axis -90 7.62852e-016 20   XYZ
    dof rx
    limits (-90.0 20.0)
  end
  begin
     id 6 
     name rhipjoint
     direction -0.496392 -0.78327 0.374276   
     length 2.31584  
     axis 0 0 0  XYZ 
  end
  begin
     id 7 
     name rfemur
     direction -0.34202 -0.939693 0   
     length 7.47417   
     axis 0 0 -20   XYZ
    dof rx ry rz
    limits (-160.0 20.0)
           (-70.0 70.0)
           (-70.0 60.0)
  end
  begin
     id 8 
     name rtibia
     direction -0.34202 -0.939693 0   
     length 7.69071   
     axis 0 0 -20   XYZ
    dof rx
    limits (-10.0 170.0)
 end
 begin
     id 9 
     name rfoot
     direction -0.103069 -0.28318 0.953512   
     length 2.16135  
     axis -90 -7.62852e-016 -20   XYZ
    dof rx rz
    limits (-45.0 90.0)
           (-20.0 70.0)
  end
  begin
     id 10 
     name rtoes
     direction -1.53581e-011 -4.21904e-011 1   
     length 1.07867   
     axis -90 -7.62852e-016 -20   XYZ
    dof rx
    limits (-90.0 20.0)
  end
  begin
     id 11 
     name lowerback
     direction -0.0258961 0.994776 -0.0987407   
     length 2.19412   
     axis 0 0 0   XYZ
    dof rx ry rz
    limits (-20.0 45.0)
           (-30.0 30.0)
           (-30.0 30.0)
  end
  begin
     id 12 
     name upperback
     direction 0.0402454 0.999185 0.00320666   
     length 2.18445   
     axis 0 0 0   XYZ
    dof rx ry rz
    limits (-20.0 45.0)
           (-30.0 30.0)
           (-30.0 30.0)
  end
  begin
     id 13 
     name thorax
     direction 0.0519376 0.997415 0.0496558   
     length 2.21487   
     axis 0 0 0   XYZ
    dof rx ry rz
    limits (-20.0 45.0)
           (-30.0 30.0)
           (-30.0 30.0)
  end
  begin
     id 14 
     name lowerneck
     direction -0.0921276 0.983211 0.157506   
     length 1.61201   
     axis 0 0 0   XYZ
    dof rx ry rz
    limits (-20.0 45.0)
           (-30.0 30.0)
           (-30.0 30.0)
  end
  begin
     id 15 
     name upperneck
     direction 0.0820814 0.98162 -0.172292   
     length 1.65275   
     axis 0 0 0   XYZ
    dof rx ry rz
    limits (-20.0 45.0)
           (-30.0 30.0)
           (-30.0 30.0)
  end
  begin
     id 16
     name head
     direction 0.0336554 0.996413 -0.0776455  
     length 1.66415  
     axis 0 0 0   XYZ
    dof rx ry rz
    limits (-20.0 45.0)
           (-30.0 30.0)
           (-30.0 30.0)
  end
  begin
     id 17 
     name lclavicle
     direction 0.94696 0.284418 -0.149576  
     length 3.41447  
     axis 0 0 0   XYZ
    dof ry rz
    limits (-20.0 10.0)
           (0.0 20.0)
  end
  begin
     id 18 
     name lhumerus
     direction 1 -0.000130264 -9.81312e-005   
     length 5.19964   
     axis 180 -30 -90   XYZ
    dof rx ry rz
    limits (-60.0 90.0)
           (-90.0 90.0)
           (-90.0 90.0)
  end
  begin
     id 19
     name lradius
     direction 1 -4.48961e-011 1.43854e-026   
     length 3.32189   
     axis 180 -30 -90   XYZ
    dof rx
    limits (-10.0 170.0)
  end
  begin
     id 20
     name lwrist
     direction 1 -4.48958e-011 3.1502e-026   
     length 1.66095   
     axis -1.97692e-014 90 90   XYZ
    dof ry
    limits (-180.0 0.0)
 end
  begin
     id 21 
     name lhand
     direction 1 -4.48927e-011 6.3004e-026   
     length 0.645616   
     axis -4.02019e-014 90 90   XYZ
    dof rx rz
    limits (-90.0 90.0)
           (-45.0 45.0)
  end
  begin
     id 22 
     name lfingers
     direction 1 -4.4904e-011 1.26008e-025   
     length 0.520512   
     axis -8.04039e-014 90 90   XYZ
    dof rx
    limits (0.0 90.0)
  end
  begin
     id 23
     name lthumb
     direction 0.707107 -6.34947e-011 0.707107   
     length 0.747354   
     axis -90 45 2.85299e-015   XYZ
    dof rx rz
    limits (-45.0 45.0)
           (-45.0 45.0)
  end
  begin
     id 24 
     name rclavicle
     direction -0.909391 0.383475 -0.161107   
     length 3.25176  
     axis 0 0 0   XYZ 
    dof ry rz
    limits (-10.0 20.0)
           (-20.0 0.0)
  end
  begin
     id 25 
     name rhumerus
     direction -1 -4.48965e-011 -1.81384e-027  
     length 5.6595   
     axis 180 30 90   XYZ
    dof rx ry rz
    limits (-90.0 60.0)
           (-90.0 90.0)
           (-90.0 90.0)
  end
  begin
     id 26 
     name rradius
     direction -1 -4.48996e-011 -8.09397e-027   
     length 3.37604   
     axis 180 30 90   XYZ
    dof rx
    limits (-10.0 170.0)
  end
  begin
     id 27 
     name rwrist
     direction -1 -4.48927e-011 -1.56669e-026   
     length 1.68802   
     axis 1.21142e-014 -90 -90   XYZ
    dof ry
    limits (-180.0 0.0)
  end
  begin
     id 28
     name rhand
     direction -1 -4.48912e-011 -3.13339e-026   
     length 0.824702   
     axis 1.99937e-014 -90 -90   XYZ
    dof rx rz
    limits (-90.0 90.0)
           (-45.0 45.0)
  end
  begin
     id 29
     name rfingers
     direction -1 -4.49011e-011 -6.26677e-026   
     length 0.664896   
     axis 3.99874e-014 -90 -90   XYZ
    dof rx
    limits (0.0 90.0)
  end
  begin
     id 30
     name rthumb
     direction -0.707107 -6.34931e-011 0.707107   
     length 0.954662   
     axis -90 -45 -2.85299e-015   XYZ
    dof rx rz
    limits (-45.0 45.0)
           (-45.0 45.0)
  end
:hierarchy
  begin
    root lhipjoint rhipjoint lowerback
    lhipjoint lfemur
    lfemur ltibia
    ltibia lfoot
    lfoot ltoes
    rhipjoint rfemur
    rfemur rtibia
    rtibia rfoot
    rfoot rtoes
    lowerback upperback
    upperback thorax
    thorax lowerneck lclavicle rclavicle
    lowerneck upperneck
    upperneck head
    lclavicle lhumerus
    lhumerus lradius
    lradius lwrist
    lwrist lhand lthumb
    lhand lfingers
    rclavicle rhumerus
    rhumerus rradius
    rradius rwrist
    rwrist rhand rthumb
    rhand rfingers
  end

#!OML:ASF F:\VICON\USERDATA\INSTALL\rory3\rory3.ASF
:FULLY-SPECIFIED
:DEGREES
447
root 6.22222 15.6205 8.02026 -1.01085 10.1709 4.01103
lowerback 3.13467 -15.3681 -6.51744
upperback -1.41927 -20.8349 8.40126
thorax 2.2544 -10.7004 11.6476
lowerneck -13.6212 1.69737 -6.94013
upperneck 28.1757 3.55561 1.59458
head 11.2402 0.998322 2.23424
rclavicle 1.94809e-014 2.8625e-014
rhumerus -58.7167 -22.6427 -48.0816
rradius 31.338
rwrist -21.5438
rhand -18.1605 18.8237
rfingers 7.12502
rthumb 8.11539 -11.0005
lclavicle 1.94809e-014 2.8625e-014
lhumerus 72.4193 -74.3215 60.4092
lradius 44.627
lwrist 1.32038
lhand -8.80993 25.7259
lfingers 7.12502
lthumb 17.1294 54.9908
rfemur -49.0039 -3.9874 37.1594
rtibia 61.9192
rfoot 12.6601 8.37449
rtoes 42.8442
lfemur -4.11168 20.771 -45.7109
ltibia 48.7869
lfoot 7.669 -21.5833
ltoes 30.5187
448
root 6.3453 15.6273 8.21632 -0.0972989 11.5185 4.49078
lowerback 2.75247 -15.38 -6.8176
upperback -2.23043 -20.8357 8.84934
thorax 1.87034 -10.6687 12.2611
lowerneck -14.0292 1.25856 -7.46864
upperneck 28.073 3.1081 1.62393
head 11.3009 0.749481 2.28244
rclavicle 2.22639e-014 2.8625e-014
rhumerus -59.3852 -20.7319 -48.5396
rradius 33.4048
rwrist -25.1067
rhand -18.9999 18.2348
rfingers 7.12502
rthumb 7.30523 -11.6191
lclavicle 2.22639e-014 2.8625e-014
lhumerus 83.8746 -74.5873 51.065
lradius 46.6275
lwrist 0.648849
lhand -8.83121 24.6373
lfingers 7.12502
lthumb 17.1089 53.904
rfemur -48.2267 -3.52781 36.2676
rtibia 61.7087
rfoot 6.56649 6.58073
rtoes 41.0278
lfemur -3.04499 21.239 -45.3631
ltibia 48.1903
lfoot 9.36957 -22.363
ltoes 28.1525
449
root 6.45487 15.6405 8.3934 0.911462 12.8105 5.11204
lowerback 2.48547 -15.298 -7.49055
upperback -3.0275 -20.7363 9.28859
thorax 1.53451 -10.5895 13.0921
lowerneck -14.231 0.779652 -8.32848
upperneck 27.8164 2.55603 2.0575
head 11.2569 0.47637 2.51349
rclavicle 6.2816e-014 6.36111e-015
rhumerus -60.6468 -22.7786 -45.1506
rradius 33.6365
rwrist -23.7928
rhand -19.0423 18.7169
rfingers 7.12502
rthumb 7.26428 -11.1384
lclavicle 6.2816e-014 6.36111e-015
lhumerus 94.825 -74.0568 41.9971
lradius 48.9118
lwrist 0.201212
lhand -9.13188 23.2565
lfingers 7.12502
lthumb 16.8195 52.548
rfemur -47.6174 -2.243 35.0105
rtibia 61.4349
rfoot 1.52933 3.35287
rtoes 40.4916
lfemur -2.88844 21.6617 -45.1413
ltibia 47.753
lfoot 12.4184 -22.7498
ltoes 27.6081
450
root 6.56747 15.6211 8.57341 1.83969 14.2942 5.47285
lowerback 2.10294 -15.3514 -7.77848
upperback -3.63323 -20.7964 9.68421
thorax 1.35943 -10.5982 13.6121
lowerneck -14.6998 0.528747 -8.42981
upperneck 27.5793 2.31848 1.94528
head 11.2785 0.356421 2.46056
rclavicle -7.99114e-014 -9.54166e-015
rhumerus -61.0115 -21.8837 -45.5236
rradius 35.1454
rwrist -27.1761
rhand -20.5247 18.3184
rfingers 7.12502
rthumb 5.83323 -11.5813
lclavicle -7.99114e-014 -9.54166e-015
lhumerus 103.527 -72.8518 34.8607
lradius 51.3057
lwrist 0.0354507
lhand -9.43315 21.7703
lfingers 7.12502
lthumb 16.5295 51.0863
rfemur -47.3614 -1.11811 33.9439
rtibia 61.2002
rfoot -2.65953 0.908556
rtoes 41.141
lfemur -2.57094 21.7857 -44.5802
ltibia 47.6104
lfoot 15.2851 -23.4053
ltoes 26.2836
451
root 6.69733 15.5814 8.7364 2.43032 15.8553 5.57985
lowerback 2.18177 -15.3496 -7.46033
upperback -4.24408 -20.7567 10.0045
thorax 0.66478 -10.5179 13.9493
lowerneck -15.0533 0.280842 -8.33949
upperneck 27.2653 2.1212 1.47886
head 11.2549 0.232323 2.24642
rclavicle 1.13307e-014 -2.54444e-014
rhumerus -61.9497 -22.3135 -44.1181
rradius 35.9262
rwrist -27.9939
rhand -21.1381 18.2271
rfingers 7.12502
rthumb 5.24104 -11.6881
lclavicle 1.13307e-014 -2.54444e-014
lhumerus 108.981 -72.098 31.2713
lradius 53.5368
lwrist -0.306059
lhand -9.24536 20.5834
lfingers 7.12502
lthumb 16.7102 49.8841
rfemur -47.2841 -0.770796 33.1639
rtibia 61.0484
rfoot -6.05693 -0.441856
rtoes 42.5373
lfemur -1.98387 21.5543 -43.8104
ltibia 47.6496
lfoot 18.1551 -23.6682
ltoes 25.8391
452
root 6.81562 15.5429 8.88977 2.86726 17.0722 5.55342
lowerback 2.28045 -15.0696 -7.03066
upperback -4.71759 -20.3326 10.1834
thorax -0.0970305 -10.236 14.142
lowerneck -15.1287 -0.140663 -8.31558
upperneck 26.7166 1.64128 1.07522
head 11.0994 -0.0100249 2.02192
rclavicle 6.97734e-014 -3.18055e-014
rhumerus -62.9017 -20.7926 -45.0377
rradius 37.888
rwrist -31.5903
rhand -22.915 17.4818
rfingers 7.12502
rthumb 3.52518 -12.4688
lclavicle 6.97734e-014 -3.18055e-014
lhumerus 114.485 -71.542 27.6278
lradius 55.8936
lwrist -0.415434
lhand -9.48081 19.638
lfingers 7.12502
lthumb 16.4836 48.9578
rfemur -46.9742 -0.455049 32.8412
rtibia 61.0181
rfoot -8.85378 -2.58221
rtoes 38.964
lfemur -1.59333 21.405 -42.9489
ltibia 47.7578
lfoot 20.7237 -23.7414
ltoes 25.2885
453
root 6.92558 15.5455 9.04431 3.18092 17.9773 5.45523
lowerback 2.28309 -14.7014 -6.71697
upperback -5.03643 -19.7982 10.3298
thorax -0.644039 -9.91646 14.3068
lowerneck -15.0174 -0.558045 -8.37639
upperneck 26.0574 1.1369 0.772794
head 10.8639 -0.256013 1.84499
rclavicle -1.64991e-013 3.81667e-014
rhumerus -63.9072 -22.538 -42.6601
rradius 37.3902
rwrist -30.4454
rhand -23.0059 17.9602
rfingers 7.12502
rthumb 3.43744 -11.9919
lclavicle -1.64991e-013 3.81667e-014
lhumerus 119.876 -70.3224 23.6406
lradius 58.6078
lwrist 0.174307
lhand -10.337 18.7275
lfingers 7.12502
lthumb 15.6591 48.1138
rfemur -46.4542 0.601778 32.3999
rtibia 60.9791
rfoot -11.0356 -5.28063
rtoes 36.5985
lfemur -1.19871 21.4355 -41.9613
ltibia 47.7527
lfoot 22.8324 -24.0862
ltoes 24.0903
